<svg xmlns="http://www.w3.org/2000/svg" class="icon icon-tabler icon-tabler-brand-twitter" width="24" height="24" viewBox="0 0 24 24" stroke-width="2" stroke="currentColor" fill="none" stroke-linecap="round" stroke-linejoin="round">
  <path d="m7.5,12l0.01,0m4.49,0l0.01,0m4.49,0l0.01,0m-4.51,9c4.9706,0 9,-4.0294 9,-9c0,-4.97056 -4.0294,-9 -9,-9c-4.97056,0 -9,4.02944 -9,9c0,1.1971 0.23374,2.3397 0.65806,3.3845c0.08121,0.2 0.12182,0.3 0.13994,0.3808c0.01772,0.079 0.0242,0.1375 0.02421,0.2186c0.00001,0.0828 -0.01503,0.173 -0.0451,0.3535l-0.59298,3.5578c-0.0621,0.3726 -0.09315,0.5589 -0.03537,0.6936c0.05057,0.1179 0.14452,0.2119 0.26242,0.2624c0.13471,0.0578 0.321,0.0268 0.69358,-0.0353l3.55789,-0.593c0.18044,-0.0301 0.27065,-0.0451 0.35348,-0.0451c0.08102,0 0.13953,0.0065 0.21859,0.0242c0.08082,0.0181 0.1808,0.0587 0.38077,0.1399c1.04481,0.4244 2.18741,0.6581 3.38451,0.6581zm-4,-9c0,0.2761 -0.22386,0.5 -0.5,0.5c-0.27614,0 -0.5,-0.2239 -0.5,-0.5c0,-0.2761 0.22386,-0.5 0.5,-0.5c0.27614,0 0.5,0.2239 0.5,0.5zm4.5,0c0,0.2761 -0.2239,0.5 -0.5,0.5c-0.2761,0 -0.5,-0.2239 -0.5,-0.5c0,-0.2761 0.2239,-0.5 0.5,-0.5c0.2761,0 0.5,0.2239 0.5,0.5zm4.5,0c0,0.2761 -0.2239,0.5 -0.5,0.5c-0.2761,0 -0.5,-0.2239 -0.5,-0.5c0,-0.2761 0.2239,-0.5 0.5,-0.5c0.2761,0 0.5,0.2239 0.5,0.5z" />
</svg>

