<svg xmlns="http://www.w3.org/2000/svg" class="icon icon-tabler icon-tabler-brand-twitter" width="24" height="24" viewBox="0 0 24 24" stroke-width="2" stroke="currentColor" fill="none" stroke-linecap="round" stroke-linejoin="round">
<path stroke="none" d="M0 0h24v24H0z" fill="none"/>
<path class="st0" d="M20.5,10.2c-1.7,0-3.3-0.5-4.6-1.5v6.9c0,3.5-2.8,6.4-6.2,6.4s-6.2-2.8-6.2-6.4s2.7-6.4,6.1-6.4
	c0.3,0,0.7,0,1,0.1v3.6c-0.3-0.1-0.6-0.2-1-0.2c-1.5,0-2.8,1.3-2.8,2.8c0,1.6,1.2,2.8,2.8,2.8s2.8-1.3,2.8-2.8V1.9h3.4
	c0,2.6,2.1,4.8,4.6,4.8L20.5,10.2L20.5,10.2"/>
</svg>